# This file uses centimeters as units for non-parametric coordinates.

mtllib cornell_box_2.mtl
g default
v 343.000000 525.326538 227.000000
v 343.000000 525.326538 332.000000
v 213.000000 525.326538 332.000000
v 213.000000 525.326538 227.000000
v 552.799988 0.000000 0.000000
v 0.000000 0.000000 0.000000
v 0.000000 0.000000 559.200012
v 549.599976 0.000000 559.200012
v 130.000000 0.000000 65.000000
v 82.000000 0.000000 225.000000
v 240.000000 0.000000 272.000000
v 290.000000 0.000000 114.000000
v 423.000000 0.000000 247.000000
v 265.000000 0.000000 296.000000
v 314.000000 0.000000 456.000000
v 472.000000 0.000000 406.000000
v 343.000000 520.551025 227.000000
v 343.000000 520.551025 332.000000
v 213.000000 520.551025 332.000000
v 213.000000 520.551025 227.000000
v 556.000000 548.799988 0.000000
v 556.000000 548.799988 559.200012
v 0.000000 548.799988 559.200012
v 0.000000 548.799988 0.000000
v 549.599976 0.000000 559.200012
v 0.000000 0.000000 559.200012
v 0.000000 548.799988 559.200012
v 556.000000 548.799988 559.200012
v 0.000000 0.000000 559.200012
v 0.000000 0.000000 0.000000
v 0.000000 548.799988 0.000000
v 0.000000 548.799988 559.200012
v 552.799988 0.000000 0.000000
v 549.599976 0.000000 559.200012
v 556.000000 548.799988 559.200012
v 556.000000 548.799988 0.000000
v 130.000000 165.000000 65.000000
v 82.000000 165.000000 225.000000
v 240.000000 165.000000 272.000000
v 290.000000 165.000000 114.000000
v 290.000000 0.000000 114.000000
v 290.000000 165.000000 114.000000
v 240.000000 165.000000 272.000000
v 240.000000 0.000000 272.000000
v 130.000000 0.000000 65.000000
v 130.000000 165.000000 65.000000
v 290.000000 165.000000 114.000000
v 290.000000 0.000000 114.000000
v 82.000000 0.000000 225.000000
v 82.000000 165.000000 225.000000
v 130.000000 165.000000 65.000000
v 130.000000 0.000000 65.000000
v 240.000000 0.000000 272.000000
v 240.000000 165.000000 272.000000
v 82.000000 165.000000 225.000000
v 82.000000 0.000000 225.000000
v 423.000000 330.000000 247.000000
v 265.000000 330.000000 296.000000
v 314.000000 330.000000 456.000000
v 472.000000 330.000000 406.000000
v 423.000000 0.000000 247.000000
v 423.000000 330.000000 247.000000
v 472.000000 330.000000 406.000000
v 472.000000 0.000000 406.000000
v 472.000000 0.000000 406.000000
v 472.000000 330.000000 406.000000
v 314.000000 330.000000 456.000000
v 314.000000 0.000000 456.000000
v 314.000000 0.000000 456.000000
v 314.000000 330.000000 456.000000
v 265.000000 330.000000 296.000000
v 265.000000 0.000000 296.000000
v 265.000000 0.000000 296.000000
v 265.000000 330.000000 296.000000
v 423.000000 330.000000 247.000000
v 423.000000 0.000000 247.000000
vn 0.000000 1.000000 0.000000
vn 0.000000 1.000000 0.000000
vn 0.000000 1.000000 0.000000
vn 0.000000 1.000000 0.000000
vn 0.000000 1.000000 0.000000
vn 0.000000 1.000000 0.000000
vn 0.000000 1.000000 0.000000
vn 0.000000 1.000000 0.000000
vn 0.000000 -1.000000 0.000000
vn 0.000000 -1.000000 0.000000
vn 0.000000 -1.000000 0.000000
vn 0.000000 -1.000000 0.000000
vn 0.000000 -1.000000 0.000000
vn 0.000000 -1.000000 0.000000
vn 0.000000 -1.000000 0.000000
vn 0.000000 -1.000000 0.000000
vn 0.000000 -1.000000 0.000000
vn 0.000000 -1.000000 0.000000
vn 0.000000 -1.000000 0.000000
vn 0.000000 -1.000000 0.000000
vn 0.000000 -1.000000 0.000000
vn 0.000000 -1.000000 0.000000
vn 0.000000 -1.000000 0.000000
vn 0.000000 -1.000000 0.000000
vn 0.000000 0.000000 -1.000000
vn 0.000000 0.000000 -1.000000
vn 0.000000 0.000000 -1.000000
vn 0.000000 0.000000 -1.000000
vn 1.000000 0.000000 0.000000
vn 1.000000 0.000000 0.000000
vn 1.000000 0.000000 0.000000
vn 1.000000 0.000000 0.000000
vn -0.999958 0.008746 -0.002861
vn -0.999958 0.008746 -0.002861
vn -0.999958 0.008746 -0.002861
vn -0.999958 0.008746 -0.002861
vn 0.000000 1.000000 0.000000
vn 0.000000 1.000000 0.000000
vn 0.000000 1.000000 0.000000
vn 0.000000 1.000000 0.000000
vn 0.953400 0.000000 0.301709
vn 0.953400 0.000000 0.301709
vn 0.953400 0.000000 0.301709
vn 0.953400 0.000000 0.301709
vn 0.292826 0.000000 -0.956166
vn 0.292826 0.000000 -0.956166
vn 0.292826 0.000000 -0.956166
vn 0.292826 0.000000 -0.956166
vn -0.957826 0.000000 -0.287348
vn -0.957826 0.000000 -0.287348
vn -0.957826 0.000000 -0.287348
vn -0.957826 0.000000 -0.287348
vn -0.285121 0.000000 0.958492
vn -0.285121 0.000000 0.958492
vn -0.285121 0.000000 0.958492
vn -0.285121 0.000000 0.958492
vn 0.000000 1.000000 0.000000
vn 0.000000 1.000000 0.000000
vn 0.000000 1.000000 0.000000
vn 0.000000 1.000000 0.000000
vn 0.955649 0.000000 -0.294508
vn 0.955649 0.000000 -0.294508
vn 0.955649 0.000000 -0.294508
vn 0.955649 0.000000 -0.294508
vn 0.301709 0.000000 0.953400
vn 0.301709 0.000000 0.953400
vn 0.301709 0.000000 0.953400
vn 0.301709 0.000000 0.953400
vn -0.956166 0.000000 0.292826
vn -0.956166 0.000000 0.292826
vn -0.956166 0.000000 0.292826
vn -0.956166 0.000000 0.292826
vn -0.296209 0.000000 -0.955123
vn -0.296209 0.000000 -0.955123
vn -0.296209 0.000000 -0.955123
vn -0.296209 0.000000 -0.955123
s off
g mesh
usemtl light
f 1//1 4//2 3//3 2//4
usemtl white
f 5//5 6//6 7//7 8//8
f 12//9 11//10 10//11 9//12
f 16//13 15//14 14//15 13//16
usemtl light
f 17//17 18//18 19//19 20//20
usemtl white
f 21//21 22//22 23//23 24//24
f 25//25 26//26 27//27 28//28
usemtl green
f 29//29 30//30 31//31 32//32
usemtl red
f 33//33 34//34 35//35 36//36
usemtl white
f 37//37 38//38 39//39 40//40
f 41//41 42//42 43//43 44//44
f 45//45 46//46 47//47 48//48
f 49//49 50//50 51//51 52//52
f 53//53 54//54 55//55 56//56
f 57//57 58//58 59//59 60//60
f 61//61 62//62 63//63 64//64
f 65//65 66//66 67//67 68//68
f 69//69 70//70 71//71 72//72
f 73//73 74//74 75//75 76//76
