# Blender v2.78 (sub 0) OBJ File: ''
# www.blender.org
mtllib plane.mtl
o red_wall
v 552.799988 0.000000 0.000000
v 549.599976 -0.000091 559.200012
v 556.000000 548.799927 559.200073
v 556.000000 548.799988 0.000089
vn -1.0000 0.0087 -0.0029
usemtl red
s off
f 1//1 2//1 3//1 4//1
o green_wall
v 0.000000 -0.000091 559.200012
v 0.000000 0.000000 0.000000
v 0.000000 548.799988 0.000089
v 0.000000 548.799927 559.200073
vn 1.0000 0.0000 0.0000
usemtl green
s off
f 5//2 6//2 7//2 8//2
o tall_block
v 423.000000 329.999969 247.000061
v 265.000000 329.999939 296.000061
v 314.000000 329.999939 456.000061
v 472.000000 329.999939 406.000061
v 423.000000 -0.000040 247.000000
v 423.000000 329.999969 247.000061
v 472.000000 329.999939 406.000061
v 472.000000 -0.000066 406.000000
v 472.000000 -0.000066 406.000000
v 472.000000 329.999939 406.000061
v 314.000000 329.999939 456.000061
v 314.000000 -0.000074 456.000000
v 314.000000 -0.000074 456.000000
v 314.000000 329.999939 456.000061
v 265.000000 329.999939 296.000061
v 265.000000 -0.000048 296.000000
v 265.000000 -0.000048 296.000000
v 265.000000 329.999939 296.000061
v 423.000000 329.999969 247.000061
v 423.000000 -0.000040 247.000000
vn -0.0000 1.0000 0.0000
vn 0.9556 0.0000 -0.2945
vn 0.3017 -0.0000 0.9534
vn -0.9562 -0.0000 0.2928
vn -0.2962 0.0000 -0.9551
usemtl white
s off
f 9//3 10//3 11//3 12//3
f 13//4 14//4 15//4 16//4
f 17//5 18//5 19//5 20//5
f 21//6 22//6 23//6 24//6
f 25//7 26//7 27//7 28//7
o short_block
v 130.000000 164.999985 65.000031
v 82.000000 164.999969 225.000031
v 240.000000 164.999954 272.000031
v 290.000000 164.999985 114.000031
v 290.000000 -0.000019 114.000000
v 290.000000 164.999985 114.000031
v 240.000000 164.999954 272.000031
v 240.000000 -0.000044 272.000000
v 130.000000 -0.000011 65.000000
v 130.000000 164.999985 65.000031
v 290.000000 164.999985 114.000031
v 290.000000 -0.000019 114.000000
v 82.000000 -0.000037 225.000000
v 82.000000 164.999969 225.000031
v 130.000000 164.999985 65.000031
v 130.000000 -0.000011 65.000000
v 240.000000 -0.000044 272.000000
v 240.000000 164.999954 272.000031
v 82.000000 164.999969 225.000031
v 82.000000 -0.000037 225.000000
vn 0.0000 1.0000 0.0000
vn 0.9534 -0.0000 0.3017
vn 0.2928 0.0000 -0.9562
vn -0.9578 0.0000 -0.2873
vn -0.2851 -0.0000 0.9585
usemtl white
s off
f 29//8 30//8 31//8 32//8
f 33//9 34//9 35//9 36//9
f 37//10 38//10 39//10 40//10
f 41//11 42//11 43//11 44//11
f 45//12 46//12 47//12 48//12
o floor
v 552.799988 0.000000 0.000000
v 0.000000 0.000000 0.000000
v 0.000000 -0.000091 559.200012
v 549.599976 -0.000091 559.200012
v 290.000000 -0.000019 114.000000
v 240.000000 -0.000044 272.000000
v 82.000000 -0.000037 225.000000
v 130.000000 -0.000011 65.000000
v 472.000000 -0.000066 406.000000
v 314.000000 -0.000074 456.000000
v 265.000000 -0.000048 296.000000
v 423.000000 -0.000040 247.000000
vn 0.0000 1.0000 0.0000
vn 0.0000 -1.0000 -0.0000
usemtl white
s off
f 49//13 50//13 51//13 52//13
f 53//14 54//14 55//14 56//14
f 57//14 58//14 59//14 60//14
